<?xml version="1.0" standalone="no"?>
<!DOCTYPE svg PUBLIC "-//W3C//DTD SVG 1.1//EN" "http://www.w3.org/Graphics/SVG/1.1/DTD/svg11.dtd">
<svg xmlns="http://www.w3.org/2000/svg" id="Capa_2" data-name="Capa 2" viewBox="0 0 994.89 193.03" width="994.8900146484375" height="193.02999877929688">
  <defs>
    <style>
      .cls-1 {
        fill: #88c835;
      }
    </style>
  </defs>
  <g id="Capa_1-2" data-name="Capa 1">
    <g>
      <path d="M58.94,0h16.41v11.14h-15.39c-8.51,0-14.68,1.99-18.53,5.98-3.85,3.98-5.77,10.43-5.77,19.34v11.34h38.69v10.74h-38.69v93.98h-11.75V58.54H0v-10.74h23.9v-12.15C23.9,11.88,35.58,0,58.94,0Z"/>
      <path d="M97.12,145.73c-7.09-5.6-10.63-13.2-10.63-22.79s3.24-16.71,9.72-22.18,15.12-8.2,25.93-8.2h46.18v-7.49c0-8.78-2.94-15.8-8.81-21.06-5.87-5.27-13.67-7.9-23.39-7.9-7.83,0-14.65,1.86-20.46,5.57-5.81,3.72-9.79,8.74-11.95,15.09h-11.95c2.56-9.72,7.8-17.42,15.7-23.09s17.38-8.51,28.46-8.51c8.64,0,16.31,1.65,22.99,4.96,6.68,3.31,11.88,7.93,15.6,13.87,3.71,5.94,5.57,12.76,5.57,20.46v68.06h-9.72l-1.22-18.03c-4.59,6.35-10.6,11.21-18.03,14.58-7.43,3.38-15.8,5.06-25.12,5.06-12.15,0-21.77-2.8-28.86-8.41ZM105.83,137.94c5.06,3.78,11.92,5.67,20.56,5.67,7.97,0,15.16-1.55,21.57-4.66,6.41-3.1,11.44-7.42,15.09-12.96,3.65-5.54,5.47-11.75,5.47-18.63v-4.46h-45.98c-7.16,0-13,1.82-17.52,5.47-4.53,3.65-6.79,8.44-6.79,14.38,0,6.35,2.53,11.41,7.6,15.19Z"/>
      <path d="M219.56,47.8h9.92l1.22,23.5c3.51-7.97,8.41-13.87,14.68-17.72,6.28-3.85,14.21-5.77,23.8-5.77h8.71v10.94h-9.12c-11.75,0-20.93,3.75-27.55,11.24-6.62,7.49-9.92,18.94-9.92,34.33v48.21h-11.75V47.8Z"/>
      <path d="M307.46,47.8h9.92l1.01,17.01c3.65-6.35,8.57-11.21,14.79-14.58,6.21-3.37,13.37-5.06,21.47-5.06,9.18,0,17.12,2.2,23.8,6.58,6.68,4.39,11.51,10.57,14.48,18.53,3.51-7.97,8.74-14.14,15.7-18.53,6.95-4.39,15.02-6.58,24.2-6.58,13.23,0,23.76,4.22,31.6,12.66,7.83,8.44,11.75,19.95,11.75,34.53v60.16h-11.75v-58.33c0-11.61-2.97-20.79-8.91-27.55-5.94-6.75-13.98-10.13-24.1-10.13s-18.47,3.48-24.61,10.43c-6.15,6.96-9.22,16.3-9.22,28.05v57.52h-11.75v-58.33c0-11.61-2.97-20.79-8.91-27.55-5.94-6.75-13.91-10.13-23.9-10.13s-18.47,3.48-24.61,10.43c-6.15,6.96-9.22,16.3-9.22,28.05v57.52h-11.75V47.8Z"/>
      <path d="M519.43,145.73c-7.09-5.6-10.63-13.2-10.63-22.79s3.24-16.71,9.72-22.18,15.12-8.2,25.93-8.2h46.18v-7.49c0-8.78-2.94-15.8-8.81-21.06-5.87-5.27-13.67-7.9-23.39-7.9-7.83,0-14.65,1.86-20.46,5.57-5.81,3.72-9.79,8.74-11.95,15.09h-11.95c2.56-9.72,7.8-17.42,15.7-23.09s17.38-8.51,28.46-8.51c8.64,0,16.31,1.65,22.99,4.96,6.68,3.31,11.88,7.93,15.6,13.87,3.71,5.94,5.57,12.76,5.57,20.46v68.06h-9.72l-1.22-18.03c-4.59,6.35-10.6,11.21-18.03,14.58-7.43,3.38-15.8,5.06-25.12,5.06-12.15,0-21.77-2.8-28.86-8.41ZM528.14,137.94c5.06,3.78,11.92,5.67,20.56,5.67,7.97,0,15.16-1.55,21.57-4.66,6.41-3.1,11.44-7.42,15.09-12.96,3.65-5.54,5.47-11.75,5.47-18.63v-4.46h-45.98c-7.16,0-13,1.82-17.52,5.47-4.53,3.65-6.79,8.44-6.79,14.38,0,6.35,2.53,11.41,7.6,15.19Z"/>
      <path d="M672.15,149.18c-7.63-3.98-13.81-9.49-18.53-16.51v60.36h-11.75V47.8h9.92l1.22,20.86c4.59-7.42,10.77-13.2,18.53-17.32,7.76-4.12,16.51-6.18,26.23-6.18,10.4,0,19.68,2.36,27.85,7.09,8.17,4.73,14.51,11.24,19.04,19.55,4.52,8.3,6.79,17.72,6.79,28.26s-2.26,19.99-6.79,28.36c-4.53,8.37-10.87,14.92-19.04,19.65-8.17,4.73-17.45,7.09-27.85,7.09-9.45,0-18-1.99-25.62-5.98ZM658.68,122.74c3.65,6.62,8.74,11.78,15.29,15.49,6.55,3.72,14.08,5.57,22.58,5.57s16-1.85,22.48-5.57c6.48-3.71,11.54-8.88,15.19-15.49,3.65-6.61,5.47-14.18,5.47-22.69s-1.82-15.87-5.47-22.48c-3.65-6.61-8.71-11.78-15.19-15.49-6.48-3.71-13.98-5.57-22.48-5.57s-16.04,1.86-22.58,5.57c-6.55,3.72-11.65,8.88-15.29,15.49-3.65,6.62-5.47,14.11-5.47,22.48s1.82,16.07,5.47,22.69Z"/>
      <path d="M784.05,47.8h9.92l1.22,23.5c3.51-7.97,8.41-13.87,14.68-17.72,6.28-3.85,14.21-5.77,23.8-5.77h8.71v10.94h-9.12c-11.75,0-20.93,3.75-27.55,11.24-6.62,7.49-9.92,18.94-9.92,34.33v48.21h-11.75V47.8Z"/>
    </g>
    <path class="cls-1" d="M860.87,99.73c0-30.86,21.74-52.59,52.79-52.59s52.59,21.74,52.59,52.59-21.74,52.79-52.59,52.79-52.79-21.74-52.79-52.79ZM913.66,141.65c24.45,0,41.34-17.08,41.34-41.92s-16.88-41.73-41.34-41.73-41.53,17.08-41.53,41.73,16.88,41.92,41.53,41.92Z"/>
    <path class="cls-1" d="M985.39,99.62h9.49c0-44.77-36.42-81.18-81.18-81.18v9.49c39.53,0,71.69,32.16,71.69,71.69Z"/>
    <circle class="cls-1" cx="913.7" cy="99.83" r="9.39"/>
  </g>
</svg>